<svg width="20" height="20" viewBox="0 0 20 20" fill="none" xmlns="http://www.w3.org/2000/svg">
<g id="basil:settings-outline">
<g id="Group">
<path id="Vector" fill-rule="evenodd" clip-rule="evenodd" d="M9.3325 2.15583C9.5367 2.04245 9.76643 1.98294 10 1.98294C10.2336 1.98294 10.4633 2.04245 10.6675 2.15583L16.6675 5.48917C17.1042 5.73167 17.375 6.19167 17.375 6.69167V13.3083C17.375 13.8083 17.1042 14.2683 16.6675 14.5108L10.6675 17.8442C10.4633 17.9576 10.2336 18.0171 10 18.0171C9.76643 18.0171 9.5367 17.9576 9.3325 17.8442L3.3325 14.5108C3.11802 14.3917 2.93931 14.2174 2.8149 14.006C2.6905 13.7945 2.62493 13.5537 2.625 13.3083V6.69167C2.625 6.19167 2.89583 5.73167 3.3325 5.48917L9.3325 2.15583ZM10.0608 3.24917C10.0422 3.23881 10.0213 3.23337 10 3.23337C9.97871 3.23337 9.95777 3.23881 9.93917 3.24917L3.93917 6.5825C3.91984 6.59327 3.90372 6.60897 3.89245 6.628C3.88117 6.64703 3.87515 6.66871 3.875 6.69083V13.3083C3.875 13.3542 3.9 13.3958 3.93917 13.4183L9.93917 16.7517C9.95777 16.762 9.97871 16.7675 10 16.7675C10.0213 16.7675 10.0422 16.762 10.0608 16.7517L16.0608 13.4183C16.0804 13.4074 16.0967 13.3915 16.108 13.3721C16.1193 13.3528 16.1251 13.3307 16.125 13.3083V6.69167C16.125 6.66941 16.119 6.64755 16.1078 6.62836C16.0965 6.60917 16.0803 6.59334 16.0608 6.5825L10.0608 3.24917Z" fill="#3C413F"/>
<path id="Vector_2" fill-rule="evenodd" clip-rule="evenodd" d="M6.04169 10C6.04169 8.95019 6.45872 7.94337 7.20106 7.20104C7.94339 6.45871 8.9502 6.04167 10 6.04167C11.0498 6.04167 12.0567 6.45871 12.799 7.20104C13.5413 7.94337 13.9584 8.95019 13.9584 10C13.9584 11.0498 13.5413 12.0566 12.799 12.799C12.0567 13.5413 11.0498 13.9583 10 13.9583C8.9502 13.9583 7.94339 13.5413 7.20106 12.799C6.45872 12.0566 6.04169 11.0498 6.04169 10ZM10 7.29167C9.28173 7.29167 8.59285 7.57701 8.08494 8.08492C7.57703 8.59283 7.29169 9.28171 7.29169 10C7.29169 10.7183 7.57703 11.4072 8.08494 11.9151C8.59285 12.423 9.28173 12.7083 10 12.7083C10.7183 12.7083 11.4072 12.423 11.9151 11.9151C12.423 11.4072 12.7084 10.7183 12.7084 10C12.7084 9.28171 12.423 8.59283 11.9151 8.08492C11.4072 7.57701 10.7183 7.29167 10 7.29167Z" fill="#3C413F"/>
</g>
</g>
</svg>
