<svg width="20" height="20" viewBox="0 0 20 20" fill="none" xmlns="http://www.w3.org/2000/svg">
<g id="bx:support">
<path id="Vector" d="M10 1.66667C5.40502 1.66667 1.66669 5.405 1.66669 10V13.4525C1.66669 14.3058 2.41419 15 3.33335 15H4.16669C4.3877 15 4.59966 14.9122 4.75594 14.7559C4.91222 14.5996 5.00002 14.3877 5.00002 14.1667V9.88083C5.00002 9.65982 4.91222 9.44786 4.75594 9.29158C4.59966 9.1353 4.3877 9.0475 4.16669 9.0475H3.41002C3.87335 5.8225 6.64835 3.33333 10 3.33333C13.3517 3.33333 16.1267 5.8225 16.59 9.0475H15.8334C15.6123 9.0475 15.4004 9.1353 15.2441 9.29158C15.0878 9.44786 15 9.65982 15 9.88083V15C15 15.9192 14.2525 16.6667 13.3334 16.6667H11.6667V15.8333H8.33335V18.3333H13.3334C15.1717 18.3333 16.6667 16.8383 16.6667 15C17.5859 15 18.3334 14.3058 18.3334 13.4525V10C18.3334 5.405 14.595 1.66667 10 1.66667Z" fill="#3C413F"/>
</g>
</svg>
