<svg width="20" height="20" viewBox="0 0 20 20" fill="none" xmlns="http://www.w3.org/2000/svg">
<g id="fluent:mail-inbox-28-regular">
<path id="Vector" d="M15.5357 2.14285C16.1514 2.14285 16.7419 2.38743 17.1772 2.82278C17.6126 3.25814 17.8572 3.8486 17.8572 4.46428V15.5357C17.8572 16.1514 17.6126 16.7419 17.1772 17.1772C16.7419 17.6126 16.1514 17.8571 15.5357 17.8571H4.46431C3.84863 17.8571 3.25817 17.6126 2.82281 17.1772C2.38746 16.7419 2.14288 16.1514 2.14288 15.5357V4.46428C2.14288 3.8486 2.38746 3.25814 2.82281 2.82278C3.25817 2.38743 3.84863 2.14285 4.46431 2.14285H15.5357ZM3.21431 15.5357C3.21431 16.2257 3.77431 16.7857 4.46431 16.7857H15.5357C15.8673 16.7857 16.1852 16.654 16.4196 16.4196C16.654 16.1852 16.7857 15.8672 16.7857 15.5357V11.7857H12.9886C12.8674 12.4608 12.5212 13.075 12.0064 13.5283C11.4917 13.9816 10.8386 14.2473 10.1536 14.2821L10 14.2857C9.31336 14.2855 8.64702 14.0527 8.10971 13.6251C7.5724 13.1975 7.19584 12.6005 7.04145 11.9314L7.01146 11.7857H3.21431V15.5357ZM15.5357 3.21428H4.46431C4.13279 3.21428 3.81485 3.34598 3.58043 3.5804C3.34601 3.81482 3.21431 4.13276 3.21431 4.46428V10.7143H7.50003C7.62948 10.7143 7.75456 10.7612 7.85212 10.8463C7.94968 10.9313 8.01313 11.0489 8.03074 11.1771L8.03574 11.25C8.03574 11.771 8.24269 12.2706 8.61107 12.639C8.97944 13.0073 9.47907 13.2143 10 13.2143C10.521 13.2143 11.0206 13.0073 11.389 12.639C11.7574 12.2706 11.9643 11.771 11.9643 11.25C11.9643 11.1205 12.0112 10.9955 12.0963 10.8979C12.1814 10.8003 12.2989 10.7369 12.4272 10.7193L12.5 10.7143H16.7857V4.46428C16.7857 4.13276 16.654 3.81482 16.4196 3.5804C16.1852 3.34598 15.8673 3.21428 15.5357 3.21428Z" fill="#3C413F"/>
</g>
</svg>
