<svg width="20" height="20" viewBox="0 0 20 20" fill="none" xmlns="http://www.w3.org/2000/svg">
<path d="M2 3.72857C2 3.53534 2.08128 3.35003 2.22596 3.21339C2.37064 3.07676 2.56687 3 2.77148 3H3.34547C4.32268 3 4.909 3.62074 5.24331 4.19777C5.46653 4.58246 5.62802 5.02834 5.75455 5.43246C5.78877 5.42991 5.82308 5.42861 5.85741 5.42857H18.7134C19.5672 5.42857 20.1844 6.19989 19.9498 6.97606L18.0695 13.2019C17.9009 13.7604 17.5442 14.2517 17.0535 14.6016C16.5627 14.9515 15.9646 15.1408 15.3497 15.1409H9.23136C8.6116 15.1409 8.00898 14.9487 7.51613 14.5939C7.02327 14.239 6.66747 13.7411 6.5034 13.1767L5.72163 10.4839L4.42554 6.35726L4.42451 6.34949C4.26404 5.79869 4.11386 5.28286 3.88962 4.89817C3.67463 4.52417 3.50182 4.45714 3.34649 4.45714H2.77148C2.56687 4.45714 2.37064 4.38038 2.22596 4.24375C2.08128 4.10712 2 3.9218 2 3.72857ZM7.21831 10.1303L7.99082 12.791C8.14512 13.3175 8.65224 13.6838 9.23136 13.6838H15.3497C15.6292 13.6838 15.9011 13.5978 16.1242 13.4388C16.3473 13.2798 16.5095 13.0565 16.5862 12.8027L18.3729 6.88571H6.20201L7.20391 10.0788L7.21831 10.1303ZM10.7435 18.0571C10.7435 18.5724 10.5267 19.0666 10.1409 19.431C9.75509 19.7953 9.23181 20 8.68618 20C8.14055 20 7.61728 19.7953 7.23146 19.431C6.84564 19.0666 6.62889 18.5724 6.62889 18.0571C6.62889 17.5419 6.84564 17.0477 7.23146 16.6833C7.61728 16.319 8.14055 16.1143 8.68618 16.1143C9.23181 16.1143 9.75509 16.319 10.1409 16.6833C10.5267 17.0477 10.7435 17.5419 10.7435 18.0571ZM9.2005 18.0571C9.2005 17.9283 9.14632 17.8048 9.04986 17.7137C8.95341 17.6226 8.82259 17.5714 8.68618 17.5714C8.54977 17.5714 8.41895 17.6226 8.3225 17.7137C8.22605 17.8048 8.17186 17.9283 8.17186 18.0571C8.17186 18.186 8.22605 18.3095 8.3225 18.4006C8.41895 18.4917 8.54977 18.5429 8.68618 18.5429C8.82259 18.5429 8.95341 18.4917 9.04986 18.4006C9.14632 18.3095 9.2005 18.186 9.2005 18.0571ZM17.944 18.0571C17.944 18.5724 17.7272 19.0666 17.3414 19.431C16.9556 19.7953 16.4323 20 15.8867 20C15.3411 20 14.8178 19.7953 14.432 19.431C14.0461 19.0666 13.8294 18.5724 13.8294 18.0571C13.8294 17.5419 14.0461 17.0477 14.432 16.6833C14.8178 16.319 15.3411 16.1143 15.8867 16.1143C16.4323 16.1143 16.9556 16.319 17.3414 16.6833C17.7272 17.0477 17.944 17.5419 17.944 18.0571ZM16.401 18.0571C16.401 17.9283 16.3468 17.8048 16.2504 17.7137C16.1539 17.6226 16.0231 17.5714 15.8867 17.5714C15.7503 17.5714 15.6195 17.6226 15.523 17.7137C15.4265 17.8048 15.3724 17.9283 15.3724 18.0571C15.3724 18.186 15.4265 18.3095 15.523 18.4006C15.6195 18.4917 15.7503 18.5429 15.8867 18.5429C16.0231 18.5429 16.1539 18.4917 16.2504 18.4006C16.3468 18.3095 16.401 18.186 16.401 18.0571Z" fill="#3C413F"/>
</svg>
