<svg width="20" height="20" viewBox="0 0 20 20" fill="none" xmlns="http://www.w3.org/2000/svg">
<g id="streamline:information-desk-customer">
<g id="Group">
<path id="Vector" d="M13.2628 5.00428C13.2628 5.30839 13.3227 5.60951 13.4391 5.89047C13.5555 6.17142 13.726 6.42671 13.9411 6.64174C14.1561 6.85677 14.4114 7.02735 14.6923 7.14372C14.9733 7.2601 15.2744 7.32 15.5785 7.32C15.8826 7.32 16.1838 7.2601 16.4647 7.14372C16.7457 7.02735 17.001 6.85677 17.216 6.64174C17.431 6.42671 17.6016 6.17142 17.718 5.89047C17.8343 5.60951 17.8942 5.30839 17.8942 5.00428C17.8942 4.39012 17.6503 3.80111 17.216 3.36683C16.7817 2.93254 16.1927 2.68857 15.5785 2.68857C14.9644 2.68857 14.3754 2.93254 13.9411 3.36683C13.5068 3.80111 13.2628 4.39012 13.2628 5.00428Z" stroke="#3C413F" stroke-width="1.42857" stroke-linecap="round" stroke-linejoin="round"/>
<path id="Vector_2" d="M12.1043 11.9529V10.7957C12.1043 9.87408 12.4704 8.9902 13.1221 8.33852C13.7738 7.68683 14.6577 7.32071 15.5793 7.32071C16.5009 7.32071 17.3848 7.68683 18.0365 8.33852C18.6882 8.9902 19.0543 9.87408 19.0543 10.7957V11.9529M9.42858 11.9557H19.0543M5.14858 8.01714C5.79741 8.01714 6.41967 7.75939 6.87846 7.3006C7.33726 6.8418 7.59501 6.21954 7.59501 5.57071C7.59501 4.92188 7.33726 4.29962 6.87846 3.84083C6.41967 3.38203 5.79741 3.12428 5.14858 3.12428C4.49974 3.12428 3.87749 3.38203 3.41869 3.84083C2.9599 4.29962 2.70215 4.92188 2.70215 5.57071C2.70215 6.21954 2.9599 6.8418 3.41869 7.3006C3.87749 7.75939 4.49974 8.01714 5.14858 8.01714Z" stroke="#3C413F" stroke-width="1.42857" stroke-linecap="round" stroke-linejoin="round"/>
<path id="Vector_3" d="M9.42856 12.2986C9.42856 11.1633 8.97755 10.0744 8.17476 9.27165C7.37197 8.46886 6.28316 8.01785 5.14784 8.01785C4.01252 8.01785 2.92371 8.46886 2.12092 9.27165C1.31813 10.0744 0.867126 11.1633 0.867126 12.2986V14.1329H2.70284L3.31427 19.0243H6.98284L7.59427 14.1329H9.42856V12.2986Z" stroke="#3C413F" stroke-width="1.42857" stroke-linecap="round" stroke-linejoin="round"/>
</g>
</g>
</svg>
