<svg width="60" height="60" viewBox="0 0 60 60" fill="none" xmlns="http://www.w3.org/2000/svg">
<g id="carbon:continuous-integration">
<path id="Vector" d="M59.8125 29.0625L49.125 10.3125C48.5625 9.75 48 9.375 47.4375 9.375H12.5625C12 9.375 11.4375 9.75 11.0625 10.3125L0.375 29.0625C0 29.4375 0 29.625 0 30C0 30.375 0 30.5625 0.1875 30.9375L10.875 49.6875C11.4375 50.25 12 50.625 12.5625 50.625H47.25C48 50.625 48.5625 50.25 48.9375 49.6875L59.625 30.9375C60 30.5625 60 30.375 60 30C60 29.625 60 29.4375 59.8125 29.0625ZM33.375 28.125H18.375L25.875 15L33.375 28.125ZM29.0625 13.125H44.0625L36.5625 26.25L29.0625 13.125ZM33.375 31.875L25.875 45L18.375 31.875H33.375ZM36.5625 33.75L44.0625 46.875H29.0625L36.5625 33.75ZM39.75 31.875H54.75L47.25 45L39.75 31.875ZM39.75 28.125L47.25 15L54.75 28.125H39.75ZM13.6875 13.125H22.5L13.875 28.125H5.0625L13.6875 13.125ZM13.6875 46.875L5.0625 31.875H13.875L22.5 46.875H13.6875Z" fill="#1DA756"/>
</g>
</svg>
