<svg width="60" height="60" viewBox="0 0 60 60" fill="none" xmlns="http://www.w3.org/2000/svg">
<g id="game-icons:shaking-hands">
<path id="Vector" d="M57.8906 7.19097L48.2133 16.3239L57.4704 31.9051L57.8906 31.3827V7.19097ZM2.10938 7.32422V33.7961C2.63437 33.8643 3.2652 33.9019 3.90176 33.9086C5.29277 33.9232 6.43934 33.8324 7.0834 33.7745L13.2539 18.161L2.10938 7.32422ZM47.7134 19.6125L46.8884 20.1464C46.8708 20.1578 46.26 20.5373 46.0806 20.6491L44.8378 21.4015L44.8554 21.412C44.2795 21.7703 44.1195 21.8711 43.4659 22.2769C43.1343 22.4828 43.1261 22.4876 42.8115 22.6829C40.4338 21.4048 37.8538 20.4224 34.843 19.6499C31.0564 20.7939 27.0451 22.4493 23.0396 24.0025C24.7025 26.0048 26.5506 26.6569 28.4121 26.6802C30.5707 26.7071 32.7773 25.7685 34.297 24.7168L35.1642 24.1168L36.0345 25.3743L49.5641 35.1395L54.8507 31.6254L47.7134 19.6125ZM14.8215 19.9336L9.50508 33.3852L11.4563 34.8855L15.065 30.7951L15.3541 30.4676L15.7901 30.4404C15.9659 30.4294 16.1393 30.4242 16.3104 30.4252C17.5071 30.4329 18.577 30.7434 19.3795 31.4517C19.9739 31.9758 20.3691 32.6735 20.5983 33.4814L20.8655 33.4648C22.2711 33.3769 23.5376 33.6669 24.4549 34.4761C25.3721 35.2855 25.8178 36.5061 25.9057 37.912L25.9139 38.0386C26.6686 38.1811 27.3442 38.4783 27.8936 38.963C28.8109 39.7723 29.2564 40.9927 29.3443 42.3986L29.3674 42.7642C29.4423 42.7879 29.5166 42.8136 29.5901 42.8413L29.8283 42.507L30.4693 41.6072L30.799 41.1443L31.658 41.7564L38.6222 46.7176C39.3797 46.5308 39.8312 46.2401 40.0823 45.8872C40.3339 45.5343 40.4612 45.0118 40.3898 44.2341L32.0393 38.254L31.1817 37.6399L31.7899 36.7908L32.5716 35.6933L33.4305 36.3054L42.8448 43.0116C43.6023 42.8249 44.0542 42.5341 44.3053 42.1813C44.5566 41.8286 44.6838 41.3074 44.6129 40.5311L33.785 32.8494L32.9249 32.2389L34.1453 30.5186L35.0058 31.1289L45.8355 38.8123C46.5938 38.6255 47.0457 38.3347 47.2972 37.9816C47.5489 37.6283 47.6761 37.1055 47.6043 36.3264L34.6621 26.9853C32.9447 28.0035 30.7478 28.8191 28.3859 28.7896C25.6218 28.755 22.6651 27.4342 20.4901 24.0962C20.4041 23.9642 20.3487 23.8146 20.3281 23.6584C20.3075 23.5022 20.3221 23.3434 20.3709 23.1936C20.4198 23.0438 20.5015 22.9068 20.6102 22.7927C20.7189 22.6787 20.8518 22.5904 20.9991 22.5345C22.5241 21.955 24.065 21.3427 25.6096 20.7352L14.8218 19.9343L14.8215 19.9336ZM16.3335 32.5453L10.7596 38.8629C10.8682 39.6534 11.1158 40.1452 11.4495 40.4395C11.7831 40.7339 12.302 40.9182 13.0999 40.9275L18.6737 34.6102C18.5651 33.8195 18.3175 33.3275 17.9838 33.0332C17.6502 32.7388 17.1314 32.5546 16.3334 32.5454L16.3335 32.5453ZM21.4086 35.5699L15.1141 42.7043C15.2227 43.495 15.4704 43.9869 15.8039 44.2813C16.1379 44.5754 16.6564 44.7598 17.4545 44.7688L23.749 37.6346C23.6405 36.8439 23.3927 36.3521 23.0591 36.0577C22.7256 35.7633 22.2068 35.5789 21.4088 35.5697L21.4086 35.5699ZM24.8469 40.0566L19.2735 46.3741C19.3821 47.1647 19.6297 47.6565 19.9634 47.951C20.2971 48.2454 20.8159 48.4295 21.6138 48.4388L27.1875 42.1219C27.0789 41.3309 26.8313 40.839 26.4976 40.5445C26.164 40.2502 25.6452 40.0661 24.8471 40.0568L24.8469 40.0566ZM27.7417 44.6429L23.1955 49.832C23.3039 50.6242 23.5515 51.1166 23.8855 51.4112C24.2189 51.7054 24.7371 51.8896 25.534 51.8991L30.0804 46.71C29.9719 45.918 29.7241 45.4256 29.3902 45.1308C29.0569 44.8366 28.5387 44.6527 27.7418 44.643L27.7417 44.6429ZM31.8833 45.2043C32.0818 45.7457 32.1966 46.3457 32.2365 46.9846L32.2637 47.4186L31.2938 48.5258L34.4255 50.7567C35.183 50.5699 35.6344 50.2792 35.8856 49.9263C36.137 49.5736 36.2645 49.0516 36.1936 48.2748L31.8834 45.2045L31.8833 45.2043Z" fill="#1DA756"/>
</g>
</svg>
