<svg width="28" height="26" viewBox="0 0 28 26" fill="none" xmlns="http://www.w3.org/2000/svg">
<path d="M12.56 1.58488C12.7067 1.34883 12.9169 1.15297 13.1696 1.01684C13.4222 0.880718 13.7086 0.809082 14 0.809082C14.2914 0.809082 14.5777 0.880718 14.8304 1.01684C15.0831 1.15297 15.2933 1.34883 15.44 1.58488L19.1667 7.58238L26.404 9.05238C26.6887 9.11037 26.9522 9.23731 27.1682 9.42054C27.3843 9.60377 27.5453 9.83689 27.6353 10.0967C27.7252 10.3564 27.741 10.6338 27.681 10.901C27.621 11.1683 27.4874 11.4161 27.2933 11.6199L22.36 16.7961L23.1067 23.7024C23.1361 23.9743 23.089 24.2488 22.9699 24.4983C22.8508 24.7478 22.664 24.9637 22.4282 25.1243C22.1923 25.285 21.9156 25.3848 21.6257 25.4139C21.3357 25.4429 21.0428 25.4002 20.776 25.2899L14 22.4899L7.224 25.2899C6.95722 25.4002 6.66425 25.4429 6.37433 25.4139C6.08442 25.3848 5.80771 25.285 5.57182 25.1243C5.33594 24.9637 5.14915 24.7478 5.03009 24.4983C4.91103 24.2488 4.86387 23.9743 4.89333 23.7024L5.64 16.7961L0.706662 11.6211C0.512299 11.4174 0.378336 11.1695 0.318147 10.902C0.257958 10.6346 0.273649 10.357 0.363654 10.0971C0.453658 9.8371 0.614827 9.60382 0.83107 9.4205C1.04731 9.23718 1.31107 9.11025 1.596 9.05238L8.83333 7.58238L12.56 1.58488Z" fill="#1DA756"/>
</svg>
