<svg width="60" height="60" viewBox="0 0 60 60" fill="none" xmlns="http://www.w3.org/2000/svg">
<g id="streamline:payment-10" clip-path="url(#clip0_21_68)">
<g id="Group">
<path id="Vector" d="M30 49.2857V57.8571M40.7143 45V53.5714M19.2857 45V53.5714M34.56 14.5243C34.3142 13.8273 33.8582 13.2237 33.2548 12.7969C32.6515 12.3701 31.9305 12.1411 31.1914 12.1414H28.4271C27.6432 12.1442 26.8877 12.4357 26.3051 12.9602C25.7224 13.4848 25.3535 14.2056 25.2686 14.9849C25.1838 15.7643 25.3891 16.5476 25.8452 17.1852C26.3014 17.8228 26.9764 18.27 27.7414 18.4414L31.9543 19.3671C32.8121 19.5584 33.5694 20.0591 34.0814 20.7734C34.5935 21.4878 34.8244 22.3657 34.73 23.2396C34.6356 24.1134 34.2226 24.9218 33.5698 25.5103C32.917 26.0989 32.0703 26.4263 31.1914 26.43H28.8086C28.0696 26.4297 27.349 26.2004 26.7457 25.7737C26.1425 25.347 25.6863 24.7438 25.44 24.0471M30 12.1414V8.57141M30 30V26.43M11.7857 20.3571C11.5015 20.3571 11.229 20.2442 11.0281 20.0433C10.8272 19.8424 10.7143 19.5699 10.7143 19.2857C10.7143 19.0015 10.8272 18.729 11.0281 18.5281C11.229 18.3272 11.5015 18.2143 11.7857 18.2143C12.0699 18.2143 12.3424 18.3272 12.5433 18.5281C12.7443 18.729 12.8571 19.0015 12.8571 19.2857C12.8571 19.5699 12.7443 19.8424 12.5433 20.0433C12.3424 20.2442 12.0699 20.3571 11.7857 20.3571ZM48.2143 20.3571C47.9301 20.3571 47.6576 20.2442 47.4567 20.0433C47.2557 19.8424 47.1429 19.5699 47.1429 19.2857C47.1429 19.0015 47.2557 18.729 47.4567 18.5281C47.6576 18.3272 47.9301 18.2143 48.2143 18.2143C48.4984 18.2143 48.771 18.3272 48.9719 18.5281C49.1728 18.729 49.2857 19.0015 49.2857 19.2857C49.2857 19.5699 49.1728 19.8424 48.9719 20.0433C48.771 20.2442 48.4984 20.3571 48.2143 20.3571Z" stroke="#1DA756" stroke-width="2.85714" stroke-linecap="round" stroke-linejoin="round"/>
<path id="Vector_2" d="M53.5714 2.14282H6.42857C5.29192 2.14282 4.20184 2.59435 3.39811 3.39808C2.59438 4.20181 2.14285 5.29189 2.14285 6.42854V32.1428C2.14285 33.2795 2.59438 34.3696 3.39811 35.1733C4.20184 35.977 5.29192 36.4285 6.42857 36.4285H53.5714C54.7081 36.4285 55.7982 35.977 56.6019 35.1733C57.4056 34.3696 57.8571 33.2795 57.8571 32.1428V6.42854C57.8571 5.29189 57.4056 4.20181 56.6019 3.39808C55.7982 2.59435 54.7081 2.14282 53.5714 2.14282Z" stroke="#1DA756" stroke-width="2.85714" stroke-linecap="round" stroke-linejoin="round"/>
</g>
</g>
<defs>
<clipPath id="clip0_21_68">
<rect width="60" height="60" fill="white"/>
</clipPath>
</defs>
</svg>
