<svg width="50" height="51" viewBox="0 0 50 51" fill="none" xmlns="http://www.w3.org/2000/svg">
<path d="M25 50.7325C11.1925 50.7325 0 39.54 0 25.7325C0 11.9275 11.1925 0.732544 25 0.732544C38.8075 0.732544 50 11.9275 50 25.7325C50 39.54 38.8075 50.7325 25 50.7325ZM25 13.2325C24.337 13.2325 23.7011 13.4959 23.2322 13.9648C22.7634 14.4336 22.5 15.0695 22.5 15.7325V28.2325C22.5 28.8956 22.7634 29.5315 23.2322 30.0003C23.7011 30.4692 24.337 30.7325 25 30.7325C25.663 30.7325 26.2989 30.4692 26.7678 30.0003C27.2366 29.5315 27.5 28.8956 27.5 28.2325V15.7325C27.5 15.0695 27.2366 14.4336 26.7678 13.9648C26.2989 13.4959 25.663 13.2325 25 13.2325ZM25 38.2325C25.663 38.2325 26.2989 37.9692 26.7678 37.5003C27.2366 37.0315 27.5 36.3956 27.5 35.7325C27.5 35.0695 27.2366 34.4336 26.7678 33.9648C26.2989 33.4959 25.663 33.2325 25 33.2325C24.337 33.2325 23.7011 33.4959 23.2322 33.9648C22.7634 34.4336 22.5 35.0695 22.5 35.7325C22.5 36.3956 22.7634 37.0315 23.2322 37.5003C23.7011 37.9692 24.337 38.2325 25 38.2325Z" fill="#1DA756"/>
</svg>
